# xmcd
# 
# Track frame offsets:
#     150
#     19165
#     33977
#     48939
# 
# Disc length: 814
# 
# Revision: 0
# Processed by: cddbd v1.5.2PL0 Copyright (c) Steve Scherf et al.
# Submitted via: fre:ac v1.0.17
# 
DISCID=27032c04
DTITLE=Connor Cleary - Me Against The Blues
DYEAR=2009
DGENRE=Blues
TTITLE0=Me Against The Blues
TTITLE1=So Delighted
TTITLE2=Payin' My Dues
TTITLE3=Tommy
EXTD=
EXTT0=
EXTT1=
EXTT2=
EXTT3=
PLAYORDER=
